<svg width="26" height="27" viewBox="0 0 26 27" fill="none" xmlns="http://www.w3.org/2000/svg">
<path d="M12.9585 6.5547e-06C12.8935 0.000300045 12.8281 0.0109758 12.7657 0.0321071L0.396908 4.30836C0.134541 4.39875 -0.0297699 4.65905 0.00450313 4.93317L1.9596 20.8539C1.98265 21.0423 2.09473 21.2083 2.26314 21.2987L12.6919 26.9289C12.7793 26.9765 12.8766 27 12.9735 27C13.071 27 13.1693 26.9759 13.2574 26.9278L23.7392 21.2208C23.9058 21.1298 24.0191 20.9643 24.0416 20.7771L25.9955 4.85751C26.0298 4.58221 25.8638 4.31962 25.5985 4.2304L13.1501 0.0298142C13.088 0.00926985 13.0234 -0.000286936 12.9585 6.5547e-06ZM13 2.93377L20.6819 19.3692H18.0597L16.4162 15.8519H9.58379L7.94031 19.3692H5.31812L13 2.93377ZM13 8.51009L10.6837 13.4994H15.3164L13 8.51009Z" fill="#F9FAFF"/>
</svg>
