<svg width="23" height="22" viewBox="0 0 23 22" fill="none" xmlns="http://www.w3.org/2000/svg">
<path d="M19.0819 7.92152V9.41863H20.5556V7.92152H21.2925V9.41863H22.7662V10.1672H21.2925V11.6642H22.7662V12.4127H21.2925V13.9099H20.5556V12.4127H19.0819V13.9099H18.3451V12.4127H16.8715V11.6642H18.3451V10.1672H16.8715V9.41863H18.3451V7.92152H19.0819ZM20.5556 10.1671H19.0819V11.6642H20.5556V10.1671Z" fill="#F9FAFF"/>
<path d="M11.0499 0.402954C14.8938 0.402954 18.2497 2.52362 20.0473 5.67584L20.0298 5.64551L15.5072 8.29084C14.6162 6.75829 12.9828 5.72395 11.1089 5.70262L11.0498 5.70229C8.19238 5.70229 5.87582 8.05562 5.87582 10.9584C5.87488 11.8733 6.11017 12.7725 6.55821 13.5662C7.45005 15.1478 9.12666 16.2146 11.0499 16.2146C12.9851 16.2146 14.6712 15.1343 15.5585 13.5357L15.5369 13.5741L20.0527 16.2316C18.2748 19.3572 14.9648 21.4713 11.1656 21.5134L11.0499 21.5141C7.1939 21.5141 3.82843 19.3803 2.03534 16.2114C1.16001 14.6644 0.65918 12.871 0.65918 10.9584C0.65918 5.12884 5.31123 0.402954 11.0499 0.402954Z" fill="#F9FAFF"/>
</svg>
