<svg width="24" height="24" viewBox="0 0 24 24" fill="none" xmlns="http://www.w3.org/2000/svg">
<path d="M18.545 0.544922H5.455L0 9.27292L2.182 23.4549H6.068L5.795 20.1819H7.704L7.977 23.4549H16.022L16.295 20.1819H18.204L17.931 23.4549H21.817L24 9.27292L18.545 0.544922ZM18.545 17.9999H5.455L4.364 9.27292L6.546 4.90892H10.052L9.818 6.54492H14.182L13.948 4.90892H17.454L19.636 9.27292L18.545 17.9999ZM15.545 11.0449C15.846 11.0449 16.09 11.9529 16.09 13.0739C16.09 14.1949 15.846 15.1029 15.545 15.1029C15.244 15.1029 15 14.1949 15 13.0739C15 11.9539 15.244 11.0449 15.545 11.0449ZM8.659 11.2149C8.96 11.2149 9.204 12.1229 9.204 13.2439C9.204 14.3649 8.96 15.2729 8.659 15.2729C8.358 15.2729 8.114 14.3649 8.114 13.2439C8.114 12.1229 8.358 11.2149 8.659 11.2149Z" fill="#F9FAFF"/>
</svg>
