<svg width="26" height="26" viewBox="0 0 26 26" fill="none" xmlns="http://www.w3.org/2000/svg">
<path d="M24.8324 7.61233L24.7219 7.3629L24.5359 7.56521C24.0951 8.06903 23.5354 8.45474 22.9076 8.68727L22.7329 8.75471L22.8053 8.92371C23.3437 10.2134 23.6199 11.5975 23.6178 12.9951C23.6178 18.8516 18.8565 23.6169 12.9959 23.6169C7.13538 23.6169 2.37819 18.8557 2.37819 12.9992C2.37819 7.14271 7.14838 2.3774 13 2.3774C14.5917 2.3774 16.1233 2.72109 17.5492 3.40196L17.7182 3.4824L17.7905 3.31665C18.0526 2.70084 18.4639 2.15997 18.9873 1.74284L19.1994 1.56978L18.9581 1.44303C17.1167 0.490657 15.0731 -0.00429441 13 2.80699e-05C5.83131 2.80699e-05 0 5.83133 0 13C0 20.1728 5.83131 26 13 26C20.1728 26 26 20.1728 26 13C26 11.1256 25.6108 9.31452 24.8324 7.61233ZM13 7.07527C11.4291 7.07678 9.92301 7.70147 8.81223 8.81225C7.70145 9.92303 7.07676 11.4291 7.07525 13C7.07676 14.5709 7.70145 16.077 8.81223 17.1878C9.92301 18.2986 11.4291 18.9233 13 18.9248C14.5709 18.9233 16.077 18.2986 17.1878 17.1878C18.2985 16.077 18.9232 14.5709 18.9247 13C18.9232 11.4291 18.2985 9.92303 17.1878 8.81225C16.077 7.70147 14.5709 7.07678 13 7.07527ZM24.206 4.90021C24.2062 5.25487 24.1365 5.60609 24.0009 5.93381C23.8653 6.26152 23.6665 6.5593 23.4157 6.81012C23.165 7.06094 22.8673 7.25988 22.5396 7.39558C22.2119 7.53127 21.8607 7.60106 21.5061 7.60096C21.1511 7.60149 20.7994 7.53203 20.4713 7.39654C20.1431 7.26106 19.8449 7.0622 19.5937 6.81136C19.3425 6.56052 19.1432 6.26262 19.0072 5.93468C18.8712 5.60675 18.8012 5.25522 18.8013 4.90021C18.8013 1.29921 24.206 1.29921 24.206 4.90021Z" fill="#F9FAFF"/>
</svg>
