<svg width="24" height="32" viewBox="0 0 24 32" fill="none" xmlns="http://www.w3.org/2000/svg">
<path d="M7.73144 24.7453C7.73144 24.7453 6.4869 25.4583 8.61503 25.6973C11.1936 25.9893 12.5124 25.9483 15.3512 25.4163C15.3512 25.4163 16.0965 25.8803 17.1408 26.2813C10.7706 28.9644 2.72581 26.1203 7.73043 24.7453H7.73144ZM6.95157 21.2453C6.95157 21.2453 5.55349 22.2603 7.68264 22.4733C10.4432 22.7543 12.613 22.7813 16.3782 22.0683C16.3782 22.0683 16.8978 22.5843 17.7193 22.8693C10.0192 25.0823 1.43958 23.0413 6.95259 21.2453H6.95157ZM13.5129 15.3032C15.0797 17.0792 13.0991 18.6782 13.0991 18.6782C13.0991 18.6782 17.0818 16.6512 15.2546 14.1212C13.5454 11.7562 12.2317 10.5851 19.3269 6.53708C19.3269 6.53708 8.19001 9.27212 13.5119 15.3042L13.5129 15.3032ZM21.9339 27.3394C21.9339 27.3394 22.8561 28.0834 20.9222 28.6624C17.2465 29.7554 5.62263 30.0834 2.39231 28.7034C1.23317 28.2084 3.40909 27.5164 4.09237 27.3754C4.80717 27.2194 5.2149 27.2514 5.2149 27.2514C3.92257 26.3553 -3.13087 29.0064 1.63074 29.7664C14.6212 31.8394 25.3066 28.8344 21.9339 27.3394ZM8.32931 17.6152C8.32931 17.6152 2.41468 18.9952 6.23169 19.4953C7.84736 19.7083 11.0624 19.6623 14.0599 19.4123C16.5053 19.2082 18.9639 18.7762 18.9639 18.7762C18.9639 18.7762 18.1006 19.1402 17.4753 19.5633C11.4691 21.1153 -0.132369 20.3913 3.20879 18.8032C6.03138 17.4642 8.32931 17.6152 8.32931 17.6152ZM18.9364 23.4483C25.0371 20.3233 22.2145 17.3282 20.2501 17.7352C19.7671 17.8282 19.5506 17.9182 19.5506 17.9182C19.5506 17.9182 19.7254 17.6412 20.0701 17.5222C23.9675 16.1732 26.9649 21.4953 18.8144 23.6053C18.8144 23.6003 18.911 23.5223 18.9364 23.4493V23.4483ZM15.2556 0C15.2556 0 18.6354 3.32304 12.0467 8.43711C6.76753 12.5412 10.8438 14.8802 12.0467 17.5522C8.9648 14.8172 6.70347 12.4122 8.21848 10.1721C10.4473 6.87509 16.6171 5.28107 15.2556 0ZM8.92718 31.9014C14.7849 32.2654 23.7814 31.6934 24 28.9694C24 28.9694 23.5862 30.0004 19.153 30.8224C14.1545 31.7494 7.98462 31.6394 4.32522 31.0464C4.32522 31.0464 5.07764 31.6554 8.92617 31.9014H8.92718Z" fill="#F9FAFF"/>
</svg>
