<svg width="26" height="26" viewBox="0 0 26 26" fill="none" xmlns="http://www.w3.org/2000/svg">
<path d="M1.66321 6.36429C-0.638606 9.66953 -0.350981 13.9644 1.40483 17.4728C1.44708 17.5613 1.48933 17.6418 1.53158 17.7222C1.55677 17.7775 1.58683 17.8319 1.61608 17.8831C1.63071 17.914 1.64783 17.9436 1.66727 17.9717C1.69652 18.031 1.72658 18.0813 1.75583 18.1366L1.92483 18.4242C1.95408 18.4795 1.98821 18.5298 2.02233 18.581C2.08164 18.6826 2.15314 18.7842 2.21246 18.8857C2.24171 18.928 2.26771 18.9702 2.29696 19.0125C2.40258 19.1774 2.51714 19.3383 2.63577 19.4951C2.72027 19.6097 2.80477 19.7234 2.89414 19.838C2.92339 19.8762 2.95752 19.9184 2.98758 19.9607L3.22889 20.2523C3.25814 20.2865 3.28414 20.3247 3.31746 20.358C3.42308 20.4847 3.53764 20.6123 3.64733 20.735C3.64733 20.739 3.65139 20.739 3.65139 20.7431C3.79114 20.917 3.94308 21.077 4.11289 21.2217C4.20146 21.3102 4.28677 21.3996 4.37939 21.4841L4.48908 21.5897C4.60771 21.7043 4.72633 21.814 4.85308 21.9237C4.85714 21.9237 4.85714 21.9237 4.86121 21.9277L4.92052 21.9789C5.03021 22.0764 5.14477 22.1739 5.25933 22.2625L5.39502 22.377C5.48358 22.4493 5.58108 22.5208 5.67452 22.5932L5.82239 22.7077C5.92396 22.7841 6.02958 22.8556 6.13114 22.932C6.16933 22.9572 6.20752 22.9872 6.24977 23.0083L6.27902 23.0335L6.58371 23.2367L6.71452 23.3212C6.87133 23.4227 7.03221 23.5202 7.18821 23.6177C7.23452 23.6388 7.27677 23.664 7.31902 23.69C7.43764 23.7575 7.56033 23.8257 7.67896 23.8891C7.74233 23.9273 7.80977 23.9565 7.87802 23.9907C7.95846 24.037 8.04296 24.0792 8.12746 24.1263C8.14983 24.1312 8.17125 24.1397 8.19083 24.1515L8.29239 24.2027C8.42321 24.2661 8.5589 24.3295 8.69864 24.3888C8.72383 24.4018 8.75389 24.4099 8.78314 24.427C8.93996 24.4944 9.09189 24.5627 9.25683 24.626C9.29096 24.6342 9.32914 24.6553 9.36652 24.6683C9.51439 24.7235 9.66714 24.778 9.81502 24.8332L9.86621 24.8503C10.0352 24.9096 10.1961 24.96 10.3659 25.0152C10.4041 25.0233 10.4463 25.0404 10.4845 25.0493C10.6584 25.1046 10.8233 25.1639 10.9964 25.1972C22.113 27.2244 25.3419 18.5152 25.3419 18.5152C22.629 22.0488 17.8133 22.9799 13.2519 21.9432C13.0829 21.905 12.918 21.8497 12.7441 21.7993C12.541 21.74 12.3338 21.6726 12.1306 21.6043L12.0632 21.5792C11.9194 21.528 11.7756 21.4735 11.6318 21.4183C11.5936 21.4012 11.5513 21.389 11.5131 21.372C11.3555 21.3098 11.1989 21.2448 11.0435 21.177C11.0094 21.164 10.9842 21.1477 10.9501 21.1347C10.8193 21.0754 10.6876 21.0161 10.5568 20.9527C10.5178 20.9346 10.4796 20.9148 10.4423 20.8934C10.3407 20.8471 10.2391 20.7918 10.1376 20.7407C10.0701 20.7065 10.0019 20.6732 9.93852 20.6391L9.57046 20.436C9.53101 20.4095 9.49004 20.3853 9.44777 20.3637C9.28689 20.2662 9.13008 20.1687 8.97408 20.072C8.93183 20.0468 8.88958 20.0167 8.84733 19.9875C8.73285 19.9151 8.61989 19.8403 8.50852 19.7632C8.47086 19.7379 8.43427 19.7111 8.39883 19.6828C8.28902 19.6104 8.1817 19.5342 8.07708 19.4545C8.03077 19.4163 7.98364 19.3822 7.93327 19.3448C7.83983 19.2725 7.74314 19.201 7.64971 19.1205L7.51889 19.019C7.39621 18.9215 7.27758 18.8199 7.15896 18.7143C7.14596 18.7013 7.13377 18.6932 7.11671 18.6802L6.74458 18.3413L6.63489 18.2398C6.54633 18.1463 6.45696 18.0618 6.36433 17.9733L6.25871 17.8636C6.14411 17.7498 6.03275 17.6327 5.92477 17.5126L5.90771 17.4955C5.79314 17.3728 5.68346 17.2412 5.56889 17.1145C5.53964 17.0803 5.51364 17.0422 5.48439 17.0088L5.23902 16.7082C5.11279 16.5487 4.99007 16.3864 4.87096 16.2215C2.34002 12.7684 1.42596 8.0031 3.44908 4.09335L1.66321 6.36429ZM8.79777 3.57985C7.13052 5.9751 7.22314 9.17391 8.52233 11.7048C8.73846 12.1282 8.98383 12.5385 9.25439 12.9317C9.50383 13.2876 9.77927 13.7101 10.1132 13.9985C10.2278 14.1293 10.3545 14.2569 10.4853 14.3877L10.5828 14.4852C10.7055 14.6038 10.8323 14.7225 10.9639 14.8362L10.981 14.8533C11.1248 14.98 11.2726 15.1027 11.4295 15.2213C11.4636 15.2465 11.4969 15.2766 11.531 15.3018C11.6838 15.4163 11.8357 15.5301 11.9925 15.6406L12.0096 15.6536C12.077 15.6999 12.1493 15.747 12.2257 15.7933C12.255 15.8145 12.2891 15.8397 12.3232 15.8567C12.4378 15.9331 12.5515 16.0005 12.6661 16.0728C12.6872 16.081 12.7002 16.0899 12.7173 16.098C12.8148 16.1573 12.9245 16.2126 13.026 16.267C13.0601 16.2882 13.0935 16.3052 13.1316 16.3263C13.204 16.3605 13.2755 16.3987 13.3429 16.436L13.3811 16.449C13.5249 16.5213 13.6728 16.5888 13.8215 16.6562C13.9739 16.723 14.1277 16.7864 14.283 16.8463C14.3382 16.8634 14.3886 16.8845 14.4398 16.9016C14.5495 16.9438 14.6681 16.982 14.7786 17.0202L14.9265 17.0665C15.0873 17.1177 15.2482 17.1811 15.4131 17.2063C23.9956 18.6282 25.9797 12.0225 25.9797 12.0225C24.1898 14.5957 20.7326 15.8226 17.0422 14.8663C16.8773 14.824 16.7164 14.7728 16.5555 14.7225C16.5043 14.7095 16.458 14.6932 16.4076 14.6802C16.298 14.638 16.1793 14.5998 16.0737 14.5616L15.9169 14.5023C15.7942 14.4511 15.6715 14.4088 15.5529 14.3544C15.5147 14.3373 15.4806 14.3292 15.4554 14.3122C15.3034 14.2457 15.1525 14.1766 15.0028 14.105L14.7786 13.9863L14.6518 13.923C14.5541 13.8728 14.4581 13.8192 14.3642 13.7621C14.3412 13.7502 14.3187 13.7375 14.2968 13.7239C14.1822 13.6516 14.0644 13.5842 13.9539 13.5078C13.9171 13.4879 13.8818 13.4653 13.8483 13.4403L13.624 13.2965C13.4672 13.1868 13.3153 13.0682 13.1585 12.9577C13.1269 12.927 13.0929 12.8987 13.0569 12.8732C11.436 11.5952 10.1579 9.85153 9.54852 7.8796C8.90989 5.82722 9.05371 3.52541 10.1538 1.6591L8.79777 3.57985ZM14.7989 1.49822C13.8174 2.94122 13.7199 4.73522 14.3967 6.32691C15.1158 8.01529 16.5888 9.34453 18.3024 9.97016C18.3747 9.99941 18.4421 10.0213 18.5136 10.0465L18.6071 10.0758C18.7086 10.105 18.8102 10.1432 18.9118 10.1692C23.6511 11.0833 24.9332 7.73172 25.281 7.24097C24.1508 8.86191 22.2593 9.2511 19.9363 8.68804C19.5142 8.57623 19.1032 8.42583 18.7086 8.23872C18.2978 8.03723 17.9067 7.79786 17.5403 7.52372C15.4578 5.94504 14.1716 2.94041 15.5301 0.490723L14.7989 1.49822Z" fill="#F9FAFF"/>
</svg>
