<svg width="23" height="16" viewBox="0 0 23 16" fill="none" xmlns="http://www.w3.org/2000/svg">
<path d="M14.207 10.9453C14.8984 12.0703 15.6484 13.1484 17.2422 13.1484C18.582 13.1484 19.2812 12.4844 19.2812 11.5625C19.2812 10.4609 18.5586 10.0703 17.0859 9.42969L16.2773 9.08594C13.9492 8.09766 12.3984 6.85938 12.3984 4.24609C12.3984 1.83594 14.2461 0 17.1289 0C19.1797 0 20.6562 0.710938 21.7188 2.57422L19.207 4.17969C18.6523 3.19141 18.0547 2.80469 17.1289 2.80469C16.1836 2.80469 15.582 3.40234 15.582 4.17969C15.582 5.14453 16.1836 5.53516 17.5664 6.13281L18.375 6.47656C21.1211 7.64453 22.668 8.83984 22.668 11.5234C22.668 14.4141 20.3828 16 17.3164 16C14.3203 16 12.6172 14.4961 11.668 12.6328L14.207 10.9453ZM2.62109 11.0273C3.125 11.9336 3.89453 12.6328 5 12.6328C6.05859 12.6328 6.66797 12.2148 6.66797 10.5898V0H10V11.1016C10 14.4688 8.04688 16 5.19531 16C2.61719 16 0.757813 14.2539 0 12.6328L2.62109 11.0273Z" fill="#F9FAFF"/>
</svg>
