<svg width="36" height="14" viewBox="0 0 36 14" fill="none" xmlns="http://www.w3.org/2000/svg">
<path d="M7.73057 7.42628C7.73057 7.27876 7.64917 7.13933 7.51899 7.06558L4.06873 5.06561C4.0117 5.03277 3.94664 5.01639 3.88158 5.00816H3.84898C3.78393 5.00816 3.7188 5.03277 3.66184 5.06561L0.211575 7.06558C0.081321 7.13933 0 7.27869 0 7.42628L0.00816731 12.8033C0.00816731 12.877 0.048863 12.9508 0.11392 12.9836C0.179047 13.0246 0.260368 13.0246 0.317398 12.9836L2.36803 11.8033C2.49821 11.7295 2.5796 11.5902 2.5796 11.4427V8.92625C2.5796 8.77874 2.66092 8.63938 2.79118 8.56562L3.66184 8.0574C3.72697 8.01641 3.80019 7.99996 3.87341 7.99996C3.94664 7.99996 4.01986 8.01641 4.07689 8.0574L4.94756 8.56562C5.07781 8.63938 5.15913 8.77867 5.15913 8.92625V11.4427C5.15913 11.5902 5.24052 11.7295 5.37071 11.8033L7.42133 12.9836C7.48646 13.0246 7.56778 13.0246 7.63291 12.9836C7.69804 12.9508 7.73873 12.877 7.73873 12.8033L7.73057 7.42628Z" fill="#F9FAFF"/>
<path d="M24.3146 0.0246273C24.2496 -0.00820909 24.1682 -0.00820909 24.1112 0.0246273C24.0461 0.0656195 24.0054 0.13115 24.0054 0.204908V5.53283C24.0054 5.58198 23.981 5.63113 23.9322 5.66397C23.8834 5.68851 23.8345 5.68851 23.7857 5.66397L22.9232 5.16398C22.8599 5.12771 22.7884 5.10863 22.7156 5.10863C22.6429 5.10863 22.5713 5.12771 22.5081 5.16398L19.0578 7.17217C18.9277 7.24593 18.8463 7.38529 18.8463 7.5328V11.541C18.8463 11.6885 18.9277 11.8279 19.0578 11.9017L22.5081 13.9099C22.5713 13.9461 22.6429 13.9652 22.7156 13.9652C22.7884 13.9652 22.8599 13.9461 22.9232 13.9099L26.3734 11.9017C26.5036 11.8279 26.585 11.6885 26.585 11.541V1.54921C26.585 1.39347 26.5036 1.25418 26.3734 1.18035L24.3146 0.0246273ZM23.9973 10.2213C23.9973 10.2623 23.981 10.2951 23.9484 10.3115L22.7685 11C22.7521 11.0081 22.734 11.0123 22.7156 11.0123C22.6973 11.0123 22.6792 11.0081 22.6627 11L21.4828 10.3115C21.4502 10.2951 21.434 10.2541 21.434 10.2213V8.84427C21.434 8.80328 21.4502 8.77051 21.4828 8.75413L22.6627 8.06556C22.6792 8.05746 22.6973 8.05325 22.7156 8.05325C22.734 8.05325 22.7521 8.05746 22.7685 8.06556L23.9484 8.75413C23.981 8.77044 23.9973 8.8115 23.9973 8.84427V10.2213Z" fill="#F9FAFF"/>
<path d="M35.7965 8.8115C35.9268 8.73775 36 8.59839 36 8.4508V7.47543C36 7.32791 35.9186 7.18855 35.7965 7.11479L32.3707 5.11483C32.3075 5.07857 32.236 5.05951 32.1632 5.05951C32.0904 5.05951 32.0189 5.07857 31.9557 5.11483L28.5054 7.12295C28.3752 7.19671 28.2939 7.33607 28.2939 7.48365V11.4918C28.2939 11.6393 28.3752 11.7787 28.5054 11.8524L31.9313 13.8196C32.0615 13.8934 32.2161 13.8934 32.3382 13.8196L34.4132 12.6558C34.4783 12.623 34.519 12.5492 34.519 12.4755C34.519 12.4017 34.4783 12.328 34.4132 12.2951L30.9466 10.2869C30.8816 10.246 30.8409 10.1804 30.8409 10.1067V8.85257C30.8409 8.77881 30.8816 8.70505 30.9466 8.67222L32.0289 8.04925C32.0606 8.02916 32.0973 8.01851 32.1347 8.01851C32.1722 8.01851 32.2088 8.02916 32.2405 8.04925L33.3227 8.67222C33.3879 8.71321 33.4286 8.77874 33.4286 8.85257V9.83617C33.4286 9.90993 33.4693 9.98368 33.5343 10.0164C33.5994 10.0574 33.6808 10.0574 33.7459 10.0164L35.7965 8.8115Z" fill="#F9FAFF"/>
<path d="M32.1103 8.623C32.1224 8.61499 32.1365 8.61072 32.151 8.61072C32.1654 8.61072 32.1796 8.61499 32.1916 8.623L32.8508 9.00824C32.8752 9.02455 32.8915 9.04916 32.8915 9.082V9.85248C32.8915 9.88525 32.8752 9.90986 32.8508 9.92624L32.1916 10.3115C32.1796 10.3195 32.1654 10.3238 32.151 10.3238C32.1365 10.3238 32.1224 10.3195 32.1103 10.3115L31.4512 9.92624C31.4267 9.90986 31.4105 9.88525 31.4105 9.85248V9.082C31.4105 9.04916 31.4267 9.02455 31.4512 9.00824L32.1103 8.623Z" fill="#F9FAFF"/>
<path d="M13.5 5.13121C13.4368 5.09495 13.3653 5.07589 13.2925 5.07589C13.2197 5.07589 13.1482 5.09495 13.085 5.13121L9.65918 7.12288C9.52892 7.19664 9.4557 7.336 9.4557 7.48351V11.4754C9.4557 11.6229 9.53709 11.7622 9.65918 11.836L13.085 13.8278C13.1482 13.8641 13.2197 13.8831 13.2925 13.8831C13.3653 13.8831 13.4368 13.8641 13.5 13.8278L16.9259 11.836C17.0561 11.7622 17.1294 11.6229 17.1294 11.4754V7.48358C17.1294 7.33607 17.0479 7.19671 16.9259 7.12295L13.5 5.13121Z" fill="#F9FAFF"/>
<path d="M13.5 5.13121C13.4368 5.09495 13.3653 5.07589 13.2925 5.07589C13.2197 5.07589 13.1482 5.09495 13.085 5.13121L9.65918 7.12288C9.52892 7.19664 9.4557 7.336 9.4557 7.48351V11.4754C9.4557 11.6229 9.53709 11.7622 9.65918 11.836L13.085 13.8278C13.1482 13.8641 13.2197 13.8831 13.2925 13.8831C13.3653 13.8831 13.4368 13.8641 13.5 13.8278L16.9259 11.836C17.0561 11.7622 17.1294 11.6229 17.1294 11.4754V7.48358C17.1294 7.33607 17.0479 7.19671 16.9259 7.12295L13.5 5.13121Z" fill="#F9FAFF"/>
<path d="M13.0768 5.13121L9.64291 7.12288C9.51259 7.19671 9.42317 7.33614 9.42317 7.48365V11.4755C9.42317 11.5739 9.46386 11.664 9.52892 11.7378L13.3861 5.08199C13.2884 5.06561 13.1745 5.07383 13.0768 5.13121Z" fill="#F9FAFF"/>
<path d="M13.4105 13.8689C13.443 13.8606 13.4756 13.8443 13.5082 13.8279L16.9422 11.8361C17.0724 11.7623 17.1537 11.6229 17.1537 11.4754V7.48358C17.1537 7.37706 17.1049 7.27047 17.0316 7.19671L13.4105 13.8689Z" fill="#F9FAFF"/>
<path d="M16.934 7.12295L13.4919 5.13121C13.4581 5.11401 13.4226 5.10027 13.3861 5.09022L9.52892 11.746C9.56087 11.7853 9.59946 11.8186 9.64291 11.8444L13.085 13.8362C13.1827 13.8935 13.2966 13.9099 13.4023 13.8771L17.0236 7.20501C16.9991 7.17224 16.9665 7.14749 16.934 7.12295Z" fill="#F9FAFF"/>
<path d="M17.1537 11.4754V7.48358C17.1537 7.33607 17.0642 7.19671 16.934 7.12295L13.4919 5.13121C13.4521 5.10646 13.4078 5.08976 13.3616 5.08206L17.1292 11.5656C17.1455 11.541 17.1537 11.5082 17.1537 11.4754Z" fill="#F9FAFF"/>
<path d="M9.64291 7.12288C9.5128 7.19664 9.42317 7.33614 9.42317 7.48365V11.4755C9.42317 11.623 9.52082 11.7624 9.64284 11.8361L13.085 13.8278C13.1664 13.877 13.2559 13.8935 13.3535 13.8771L9.66727 7.11472L9.64291 7.12288Z" fill="#F9FAFF"/>
<path fill-rule="evenodd" clip-rule="evenodd" d="M12.9711 4.40165L12.9223 4.42626H12.9874L12.9711 4.40165Z" fill="#F9FAFF"/>
<path fill-rule="evenodd" clip-rule="evenodd" d="M16.9422 11.8361C17.0398 11.7787 17.113 11.6803 17.1456 11.5738L13.3697 5.08199C13.2721 5.06561 13.1663 5.07383 13.0768 5.13121L9.6591 7.11479L13.3453 13.8853C13.3989 13.8764 13.451 13.8599 13.4999 13.8361L16.9422 11.8361Z" fill="#F9FAFF"/>
<path fill-rule="evenodd" clip-rule="evenodd" d="M17.2596 11.7705L17.2351 11.7295V11.7869L17.2596 11.7705Z" fill="#F9FAFF"/>
<path fill-rule="evenodd" clip-rule="evenodd" d="M16.9422 11.8361L13.5082 13.8279C13.4597 13.8528 13.4074 13.8695 13.3535 13.8771L13.4187 14L17.227 11.7788V11.7295L17.1292 11.5656C17.113 11.6804 17.0398 11.7787 16.9422 11.8361Z" fill="#F9FAFF"/>
<path fill-rule="evenodd" clip-rule="evenodd" d="M16.9422 11.8361L13.5082 13.8279C13.4597 13.8528 13.4074 13.8695 13.3535 13.8771L13.4187 14L17.227 11.7788V11.7295L17.1292 11.5656C17.113 11.6804 17.0398 11.7787 16.9422 11.8361Z" fill="#F9FAFF"/>
</svg>
