<svg width="20" height="22" viewBox="0 0 20 22" fill="none" xmlns="http://www.w3.org/2000/svg">
<path d="M5.89445 14.27L5.08808 14.3204V14.6752C5.08808 15.6386 5.64206 15.8412 6.09582 15.8412H6.19695L7.50719 15.7394C7.5573 15.5873 7.5573 15.4864 7.5573 15.4864C7.5573 15.4864 7.40605 7.22536 7.35503 6.21151C7.35503 5.95851 7.30491 5.80634 7.20378 5.65418C6.75093 5.60376 6.29718 5.60376 5.99559 5.55334H5.84434C5.54184 5.55334 5.29036 5.65509 5.13911 5.80634C4.88672 6.06026 4.93774 6.41502 4.93774 6.41502V7.02277C5.59195 7.07319 6.0457 7.07319 6.0457 7.07319C6.0457 7.07319 6.75093 7.22536 6.80105 7.98528C6.85116 8.79654 6.85116 13.3579 6.85116 13.3579C6.85116 13.3579 6.90219 14.1188 5.89445 14.27ZM3.37603 14.4735L2.11681 14.5753C2.11681 14.5753 1.05897 14.7274 1.00885 13.5614C1.00885 12.6997 0.907714 7.7332 0.907714 7.7332C0.907714 7.7332 0.85669 6.82019 1.96465 6.8706C2.31727 6.8706 2.77102 6.92102 3.325 6.97235C3.325 6.1611 3.27489 5.45159 3.27489 4.89425C2.51954 4.7925 1.86442 4.74208 1.41067 4.69167C-0.0499067 4.5395 0.000206645 5.75593 0.000206645 5.75593C0.000206645 5.75593 0.151458 14.8283 0.201571 15.9429C0.251685 17.2611 1.66215 17.0576 1.66215 17.0576L3.42523 16.855C3.42614 16.2473 3.42614 15.3856 3.37603 14.4735ZM19.0433 3.1709C18.9932 1.44755 17.4816 1.0928 17.4816 1.0928C17.4816 1.0928 12.3427 0.332873 10.0757 0.0285365C7.80878 -0.2758 7.96003 1.95447 7.96003 1.95447C7.96003 1.95447 8.4639 18.021 8.51401 19.9974C8.56413 22.3798 10.781 21.9738 10.781 21.9738L18.5394 20.6556C19.9499 20.3512 20 18.5775 20 18.5775C20 18.5775 19.0934 5.04642 19.0433 3.1709ZM17.3303 16.8046L11.5372 17.4124C11.5372 17.4124 9.87436 17.6654 9.82425 15.5882C9.77323 14.0674 9.47163 5.40117 9.47163 5.40117C9.47163 5.40117 9.3705 3.82999 11.0835 3.93174C12.8465 4.08391 17.0779 4.43866 17.0779 4.43866C17.0779 4.43866 18.1859 4.69167 18.2369 6.00985C18.287 7.42886 18.7909 15.2848 18.7909 15.2848C18.7909 15.2848 18.892 16.5507 17.3303 16.8046ZM11.4862 17.109L13.703 16.856C13.6019 14.5753 13.1992 5.70551 13.149 4.43866C12.4432 4.39705 11.7379 4.34632 11.0333 4.2865H10.8821C10.5295 4.2865 10.227 4.38825 10.0256 4.59083C9.72311 4.89517 9.72311 5.45251 9.72311 5.45251V5.60467C10.6297 5.70643 11.3349 5.75684 11.3349 5.75684C11.3349 5.75684 12.2926 5.95943 12.3427 7.02369C12.3928 8.1897 12.6452 14.4744 12.6452 14.4744C12.6452 14.4744 12.7463 15.5387 11.386 15.7413L10.0757 15.843C10.1769 16.9073 10.781 17.1612 11.2848 17.1612C11.4361 17.109 11.4862 17.109 11.4862 17.109ZM8.11128 15.9934L6.29809 16.1455C6.29809 16.1455 4.83751 16.3481 4.83751 14.6761C4.83751 13.4597 4.68626 6.41502 4.68626 6.41502C4.68626 6.41502 4.58421 5.09684 6.09582 5.19859C6.54957 5.249 7.15366 5.30034 7.80878 5.35076C7.75867 4.03258 7.70764 2.96832 7.70764 2.41098C6.85116 2.30923 5.99468 2.25881 5.39058 2.15797C3.42614 1.95447 3.52637 3.67782 3.52637 3.67782C3.52637 3.67782 3.72773 16.602 3.77784 18.1732C3.82796 20.0487 5.74229 19.7444 5.74229 19.7444L8.2106 19.4401C8.1614 18.7306 8.1614 17.5141 8.11128 15.9934Z" fill="#F9FAFF"/>
</svg>
