<svg width="30" height="26" viewBox="0 0 30 26" fill="none" xmlns="http://www.w3.org/2000/svg">
<path d="M24.666 8.42712C24.3467 8.32042 24.0247 8.22157 23.7004 8.13067C23.7548 7.91378 23.805 7.69952 23.8495 7.48903C24.5805 4.03239 24.1027 1.24766 22.4704 0.330792C20.9053 -0.548177 18.3458 0.368348 15.7609 2.55972C15.5061 2.77608 15.257 2.99867 15.0138 3.22728C14.851 3.07526 14.6853 2.92619 14.5168 2.78015C11.8077 0.437068 9.09223 -0.55046 7.46168 0.369033C5.89805 1.25074 5.43504 3.86859 6.09316 7.14451C6.15864 7.46896 6.23257 7.79173 6.31488 8.11252C5.93051 8.21891 5.55961 8.33215 5.20465 8.45269C2.0284 9.53143 0 11.2219 0 12.9754C0 14.7864 2.17758 16.6029 5.48578 17.7044C5.75398 17.7933 6.02442 17.8757 6.29684 17.9515C6.20836 18.297 6.12982 18.6448 6.06129 18.9946C5.43387 22.2137 5.92383 24.7697 7.48324 25.6458C9.09387 26.5506 11.7971 25.6207 14.4293 23.3793C14.6427 23.1971 14.8515 23.0097 15.0553 22.8173C15.3187 23.0649 15.5891 23.3052 15.8663 23.5381C18.416 25.6752 20.9341 26.5382 22.492 25.6597C24.1011 24.7523 24.6241 22.0065 23.9452 18.6659C23.8917 18.4041 23.8317 18.1437 23.7653 17.8848C23.9551 17.83 24.1414 17.7736 24.3231 17.715C27.7623 16.6051 30 14.8106 30 12.9754C30 11.2155 27.9061 9.51362 24.666 8.42712ZM23.9201 16.5301C23.756 16.5829 23.5877 16.634 23.4162 16.6836C23.0365 15.5128 22.5241 14.2678 21.8971 12.9814C22.4954 11.7258 22.9881 10.4967 23.3571 9.33349C23.664 9.42002 23.9618 9.51122 24.2489 9.60745C27.0251 10.5385 28.7184 11.9148 28.7184 12.9754C28.7184 14.105 26.8896 15.5715 23.9201 16.5301ZM22.688 18.9083C22.9882 20.3854 23.031 21.721 22.8321 22.7652C22.6535 23.7034 22.2942 24.3288 21.8498 24.5794C20.9045 25.1125 18.8827 24.4196 16.7021 22.5918C16.4444 22.3753 16.1928 22.1518 15.9478 21.9217C16.7932 21.0212 17.638 19.9743 18.4625 18.8115C19.9129 18.6862 21.283 18.4812 22.5255 18.2014C22.5867 18.4419 22.6411 18.6777 22.688 18.9083ZM10.2277 24.4873C9.30398 24.8049 8.56828 24.8141 8.12355 24.5643C7.17727 24.0327 6.78387 21.9804 7.32047 19.2275C7.38426 18.9022 7.45729 18.5787 7.53949 18.2573C8.76832 18.5221 10.1285 18.7125 11.5822 18.8274C12.4124 19.9651 13.2816 21.0109 14.1575 21.9266C13.9714 22.1021 13.7808 22.273 13.586 22.4394C12.422 23.4304 11.2556 24.1336 10.2277 24.4873ZM5.90039 16.5231C4.43754 16.036 3.22945 15.4031 2.40141 14.7123C1.65727 14.0917 1.28168 13.4754 1.28168 12.9754C1.28168 11.9113 2.91023 10.554 5.62652 9.63154C5.95617 9.51967 6.30117 9.41408 6.65918 9.315C7.03465 10.5045 7.52707 11.7481 8.12133 13.0058C7.51934 14.282 7.01988 15.5455 6.64078 16.749C6.39212 16.6796 6.14525 16.6043 5.90039 16.5231ZM7.35094 6.90468C6.78715 4.09803 7.16156 1.98086 8.10387 1.44948C9.10746 0.883515 11.3268 1.69045 13.6659 3.71368C13.8185 3.84591 13.9685 3.98082 14.1161 4.11835C13.2444 5.03008 12.3832 6.06806 11.5604 7.19908C10.1495 7.32647 8.79891 7.53103 7.55719 7.80511C7.48068 7.50674 7.41191 7.20643 7.35094 6.90468ZM20.2916 10.0174C19.9983 9.52389 19.6941 9.03661 19.3793 8.55589C20.3365 8.67381 21.2536 8.83031 22.1148 9.02163C21.8563 9.82891 21.534 10.6728 21.1547 11.5381C20.8774 11.0256 20.5897 10.5186 20.2916 10.0174ZM15.0144 5.01056C15.6055 5.6344 16.1975 6.33084 16.7798 7.08653C15.5986 7.03218 14.4154 7.03195 13.2341 7.08584C13.817 6.33712 14.4141 5.64159 15.0144 5.01056ZM9.70336 10.0259C9.40903 10.5232 9.12664 11.027 8.85645 11.5371C8.48332 10.6749 8.16398 9.82708 7.90324 9.00839C8.75918 8.82186 9.67195 8.66935 10.623 8.55361C10.3047 9.03726 9.99805 9.52825 9.70336 10.0259ZM10.6504 17.486C9.66774 17.3791 8.74125 17.2345 7.88555 17.053C8.15039 16.2197 8.47676 15.3539 8.85797 14.4732C9.12924 14.9836 9.41279 15.4878 9.7084 15.9852C10.0124 16.4966 10.3271 16.9975 10.6504 17.486ZM15.0498 21.0281C14.4423 20.3898 13.8364 19.6835 13.2448 18.924C13.8192 18.9459 14.4048 18.9571 15 18.9571C15.6115 18.9571 16.2159 18.9437 16.8109 18.9179C16.2267 19.6912 15.6369 20.3985 15.0498 21.0281ZM21.1668 14.4282C21.5678 15.3186 21.9057 16.1799 22.1741 16.9989C21.3043 17.1923 20.3652 17.348 19.3757 17.4636C19.6927 16.974 19.9998 16.4782 20.2966 15.9767C20.5984 15.4669 20.8885 14.9506 21.1668 14.4282ZM19.1865 15.3529C18.7321 16.1219 18.2521 16.8763 17.7473 17.6149C16.833 17.6779 15.9166 17.7093 15 17.7088C14.0664 17.7088 13.1583 17.6805 12.2838 17.6252C11.7659 16.8884 11.2767 16.1327 10.8175 15.3598C10.3603 14.591 9.93347 13.8056 9.53754 13.0052C9.93246 12.2046 10.3581 11.4188 10.8137 10.6494C11.2691 9.87985 11.7542 9.1275 12.2682 8.39379C13.1604 8.32804 14.0753 8.29379 14.9999 8.29379C15.9287 8.29379 16.8449 8.32838 17.7368 8.39459C18.2456 9.1272 18.7278 9.87707 19.1823 10.6428C19.6394 11.4105 20.0707 12.1925 20.4756 12.9875C20.0749 13.7906 19.6449 14.5796 19.1865 15.3529ZM21.8303 1.41227C22.8348 1.97663 23.2255 4.25248 22.5943 7.23698C22.554 7.42738 22.5088 7.62133 22.4596 7.81801C21.2148 7.53811 19.8633 7.33001 18.4482 7.20068C17.6239 6.05722 16.7698 5.01764 15.9123 4.11766C16.137 3.90666 16.3671 3.70112 16.6023 3.50125C18.8171 1.62379 20.8871 0.882488 21.8303 1.41227ZM15 10.3659C16.4795 10.3659 17.6789 11.5342 17.6789 12.9754C17.6789 14.4166 16.4795 15.5849 15 15.5849C13.5205 15.5849 12.3211 14.4166 12.3211 12.9754C12.3211 11.5342 13.5205 10.3659 15 10.3659Z" fill="#F9FAFF"/>
</svg>
