<svg width="25" height="26" viewBox="0 0 25 26" fill="none" xmlns="http://www.w3.org/2000/svg">
<path d="M24.9994 6.92553C24.9994 6.67385 24.995 6.42328 24.9883 6.17103C24.9816 5.62092 24.9335 5.0721 24.8443 4.52922C24.7512 3.98573 24.5778 3.45911 24.3298 2.96665C23.8261 1.97763 23.0219 1.17367 22.0328 0.670231C21.5405 0.421832 21.0138 0.248405 20.4702 0.155699C19.9272 0.0660576 19.3782 0.0177397 18.8279 0.0111611C18.5762 0.00446442 18.3256 0.00167418 18.0734 0H6.92609C6.67441 0 6.42384 0.00446442 6.17159 0.0111611C6.03487 0.0150676 5.89758 0.0195321 5.7603 0.0262288C5.34758 0.0428026 4.93636 0.0860496 4.52922 0.155699C4.12362 0.226477 3.7268 0.340604 3.34557 0.496116C3.21685 0.550062 3.09017 0.6081 2.96553 0.670231C2.59773 0.858484 2.25329 1.08924 1.93926 1.35776C1.83435 1.44761 1.73334 1.54081 1.63623 1.63679C1.24537 2.02665 0.918587 2.47586 0.667999 2.96777C0.419816 3.46017 0.2464 3.98681 0.153467 4.53034C0.065121 5.0729 0.017738 5.62135 0.0117193 6.17103C0.00446448 6.42272 0.00167418 6.67329 0 6.92553V18.0773C0 18.3289 0.00446448 18.5795 0.0117193 18.8312C0.0183716 19.3813 0.0665012 19.9301 0.155699 20.473C0.248511 21.0166 0.421932 21.5432 0.670231 22.0356C1.1742 23.0238 1.97754 23.8276 2.96553 24.332C3.45798 24.58 3.98461 24.7532 4.5281 24.846C5.07112 24.9356 5.62015 24.9839 6.17048 24.9905C6.4216 24.9972 6.67273 25 6.92497 25.0017H18.0745C18.3262 25.0017 18.5767 24.9972 18.829 24.9905C19.3795 24.9836 19.9287 24.9353 20.4719 24.846C21.0154 24.7531 21.542 24.5799 22.0345 24.332C23.0228 23.8277 23.8262 23.0237 24.3298 22.035C24.5781 21.5427 24.7515 21.016 24.8443 20.4725C24.934 19.9296 24.9823 19.3808 24.9888 18.8306C24.9955 18.5795 24.9983 18.3284 25 18.0767V7.82122C24.9994 7.52266 24.9994 7.22409 24.9994 6.92553ZM21.0997 20.3748C19.9836 18.2023 17.9059 18.7414 16.8412 19.2882C16.7452 19.3441 16.6469 19.3999 16.5482 19.4557L16.5247 19.4696C14.3204 20.6415 11.361 20.7275 8.38542 19.4484C5.96319 18.3981 3.915 16.6402 2.5096 14.4052C3.19336 14.9111 3.92558 15.348 4.69552 15.7094C7.84075 17.1827 11.0016 17.0761 13.2338 15.7094C10.0529 13.2623 7.39654 10.073 5.36017 7.49364C4.97224 7.04104 4.62174 6.55766 4.31213 6.04826C6.75086 8.2805 10.6015 11.0831 11.9844 11.8588C9.05063 8.76211 6.46569 4.94218 6.58679 5.06496C11.207 9.7203 15.47 12.3527 15.47 12.3527C15.6307 12.4408 15.749 12.5117 15.8456 12.5759C15.9349 12.3481 16.0124 12.1158 16.0777 11.88C16.8155 9.18289 15.9851 6.0996 14.1072 3.55373C18.3926 6.12527 20.9256 11.0133 19.8876 15.1474C19.8631 15.244 19.8346 15.3372 19.8072 15.4315C21.9569 18.0767 21.372 20.91 21.098 20.3754L21.0997 20.3748Z" fill="#F9FAFF"/>
</svg>
