<svg width="26" height="26" viewBox="0 0 26 26" fill="none" xmlns="http://www.w3.org/2000/svg">
<path d="M0 13V26H26V0H0V13ZM20.9511 11.9633C21.5744 12.11 22.1409 12.4366 22.5802 12.9025C22.8174 13.156 23.1725 13.6216 23.2026 13.7361C23.2107 13.7703 22.0813 14.5275 21.3956 14.9508C21.3704 14.9679 21.2688 14.8622 21.1583 14.6965C20.8244 14.2098 20.4726 13.9986 19.9355 13.9604C19.1482 13.9092 18.6404 14.3203 18.6444 15.0101C18.6403 15.1789 18.678 15.3461 18.7541 15.4968C18.928 15.8567 19.2538 16.0721 20.2605 16.5084C22.1228 17.3079 22.9182 17.8368 23.413 18.5859C23.9671 19.4236 24.0898 20.761 23.7177 21.7596C23.3033 22.8386 22.2787 23.5747 20.8398 23.816C20.3954 23.8964 19.3375 23.8834 18.8589 23.7949C17.8141 23.6088 16.8236 23.0921 16.2142 22.4152C15.9729 22.1528 15.5074 21.463 15.5374 21.4167C15.5504 21.3996 15.6561 21.3322 15.7747 21.2639L16.7399 20.7049L17.4891 20.2694L17.6459 20.5018C17.8661 20.8358 18.3438 21.2932 18.6322 21.4451C19.4618 21.8855 20.6001 21.8221 21.1632 21.3184C21.3915 21.1283 21.5191 20.8358 21.502 20.54C21.502 20.2394 21.4638 20.1045 21.307 19.8794C21.1039 19.5918 20.6936 19.3464 19.5211 18.8386C18.1797 18.2585 17.5996 17.9034 17.0755 17.3323C16.7456 16.9563 16.5016 16.5129 16.3605 16.0331C16.263 15.665 16.2378 14.742 16.3142 14.3739C16.5896 13.0747 17.5711 12.1737 18.98 11.9072C19.4374 11.8186 20.5034 11.8519 20.9519 11.9624L20.9511 11.9633ZM14.8492 13.0512L14.8574 14.1131H11.4717V23.7323H9.07644V14.1131H5.69563V13.0723C5.69563 12.4922 5.70862 12.0104 5.72487 11.9974C5.73787 11.9803 7.79431 11.9722 10.2911 11.9762L14.8363 11.9892L14.8492 13.0512Z" fill="#F9FAFF"/>
</svg>
